PathFileType	3	(X/Y/Z)	RCH0000005 BBF 05.c3d
DataRate	CameraRate	NumFrames	NumMarkers	Units	OrigDataRate	OrigDataStartFrame	OrigNumFrames
100.0	100.0	9	23	mm	100.0	295	453
Frame#	Time	T2			T10			MAN			LASI			RASI			LPSI			RPSI			LPAT			LKNE			LANK			LMED			LHEE			LTOE			RPAT			RKNE			RANK			RMED			RHEE			RTOE			LTHI			LTIB			RTHI			RTIB			
		X1	Y1	Z1	X2	Y2	Z2	X3	Y3	Z3	X4	Y4	Z4	X5	Y5	Z5	X6	Y6	Z6	X7	Y7	Z7	X8	Y8	Z8	X9	Y9	Z9	X10	Y10	Z10	X11	Y11	Z11	X12	Y12	Z12	X13	Y13	Z13	X14	Y14	Z14	X15	Y15	Z15	X16	Y16	Z16	X17	Y17	Z17	X18	Y18	Z18	X19	Y19	Z19	X20	Y20	Z20	X21	Y21	Z21	X22	Y22	Z22	X23	Y23	Z23	

295	2.940	1583.75497	74.63287	1316.40689	1541.17944	98.37879	1105.74211	1710.62511	87.40577	1260.17947	1643.24333	197.38695	902.43484	1676.85924	10.94662	913.04931	1513.26670	120.86459	944.21991	1523.49055	34.54093	944.66704	1726.60646	177.74613	491.91742	1647.60622	229.49280	444.93852	1391.36713	185.49188	151.89732	1415.05227	107.30670	158.76224	1336.97403	148.34953	170.41047	1442.97489	163.42771	119.84163	1704.90162	82.05226	516.92514	1665.97272	2.98176	444.32923	1583.65223	-2.29835	70.22605	1575.56234	80.38978	68.93550	1521.02058	15.76844	55.03013	1633.43757	33.53532	62.14515	1631.40178	292.33954	605.21808	1507.15636	274.37476	327.51482	1668.98242	-79.51115	612.21007	1637.09217	-70.14310	297.13429	
296	2.950	1595.43777	74.61100	1318.53254	1552.68345	99.05751	1107.99630	1722.13479	88.47701	1262.51475	1654.73823	198.92610	905.20601	1687.51179	12.33025	914.63300	1524.39490	122.92117	946.83584	1534.43611	36.62481	947.13617	1746.96763	179.94694	498.84554	1669.21902	231.35871	449.53985	1424.90728	185.20991	146.31533	1449.92803	107.32878	153.36198	1370.26164	146.55583	161.75044	1478.51463	164.80364	116.84096	1707.13859	81.41020	516.27841	1666.82107	2.18265	444.93695	1583.76811	-2.52799	70.88738	1575.79469	80.14678	69.74647	1521.17845	15.56758	56.04450	1633.58626	33.29524	62.51333	1649.48511	294.93609	609.34632	1531.70263	274.58930	327.24716	1673.14526	-79.40249	613.28817	1637.38265	-70.70161	297.64314	
297	2.960	1607.02313	74.71620	1320.48496	1564.10198	99.81374	1110.05298	1733.55560	89.55694	1264.63776	1666.23976	200.44265	907.74567	1698.03290	13.67085	916.07377	1535.47549	125.03548	949.22133	1545.26135	38.76968	949.39889	1766.73774	181.85512	505.65618	1690.34439	232.97336	454.04056	1459.48843	185.41905	140.30904	1485.54778	107.77088	147.62278	1404.63634	145.45741	152.57337	1514.89029	166.43358	113.56124	1709.49276	80.78815	515.67683	1667.80180	1.45381	445.59000	1583.89962	-2.66451	71.63535	1576.07543	80.00189	70.59894	1521.35292	15.48895	57.17648	1633.77614	33.09494	62.93222	1667.04991	297.34321	613.24658	1556.62175	274.93889	326.46855	1677.32920	-79.25073	614.33268	1637.80216	-71.15111	298.20868	
298	2.970	1618.53094	74.96225	1322.23017	1575.45138	100.65380	1111.87616	1744.91006	90.65126	1266.50019	1677.76856	201.92218	910.00425	1708.44470	14.95411	917.34871	1546.53289	127.19666	951.32746	1555.98778	40.96538	951.41666	1785.86475	183.41116	512.22441	1710.95580	234.32914	458.34171	1495.06937	186.20300	134.03739	1521.78796	108.69873	141.69712	1440.04552	145.21035	143.05196	1552.02373	168.33575	110.14209	1712.03794	80.23659	515.10634	1668.99583	0.84069	446.26296	1584.04220	-2.68787	72.46192	1576.40460	79.97519	71.48331	1521.53994	15.56208	58.41391	1634.00860	32.94609	63.40016	1684.07949	299.52978	616.82039	1581.95150	275.49464	325.22170	1681.60146	-79.02277	615.31143	1638.38758	-71.46116	298.81284	
299	2.980	1629.98054	75.36382	1323.74040	1586.74755	101.58361	1113.43645	1756.21959	91.76877	1268.06303	1689.34579	203.34953	911.94152	1718.76969	16.16560	918.43977	1557.59191	129.39341	953.11374	1566.63807	43.20088	953.15715	1804.29815	184.56139	518.43278	1731.03189	235.42768	462.35451	1531.59421	187.61842	127.66050	1558.51874	110.15491	135.73322	1476.42098	145.93653	133.35557	1589.83143	170.51029	106.72508	1714.83989	79.79484	514.55361	1670.47173	0.37830	446.93180	1584.19074	-2.58274	73.35490	1576.78035	80.08248	72.38980	1521.73389	15.81102	59.74116	1634.28301	32.85866	63.91233	1700.57446	301.47369	619.98562	1607.72298	276.32325	323.56483	1686.01942	-78.69412	616.19634	1639.16265	-71.61129	299.43535	
300	2.990	1641.38986	75.93619	1324.99432	1598.00582	102.60849	1114.71128	1767.50376	92.92058	1269.29769	1700.99305	204.70931	913.52734	1729.03093	17.29150	919.33359	1568.67749	131.61425	954.54877	1577.23598	45.46457	954.59444	1821.99010	185.26262	524.17326	1750.55511	236.28042	466.00168	1568.98142	189.69016	121.33440	1595.60102	112.15573	129.86854	1513.67101	147.71154	123.64714	1628.21361	172.94000	103.44760	1717.95738	79.48994	514.00580	1672.28719	0.09054	447.57385	1584.33987	-2.33966	74.29958	1577.19860	80.33428	73.30915	1521.92774	16.25202	61.14096	1634.59642	32.84081	64.46157	1716.55180	303.16331	622.67932	1633.95279	277.48164	321.56659	1690.63094	-78.24980	616.96358	1640.14179	-71.59096	300.05479	
301	3.000	1652.77480	76.69475	1325.97702	1609.24079	103.73299	1115.68483	1778.77962	94.11907	1270.18643	1712.73212	205.98667	914.74194	1739.25213	18.31939	920.02103	1579.81428	133.84767	955.61044	1587.80627	47.74435	955.70902	1838.89830	185.48633	529.34941	1769.51143	236.90849	469.21846	1607.11253	192.40861	115.20581	1632.88285	114.68971	124.22414	1551.67156	150.55515	114.08069	1667.04315	175.59273	100.43622	1721.44350	79.33655	513.44986	1674.49108	-0.00967	448.16734	1584.48418	-1.95558	75.28071	1577.65317	80.73515	74.23377	1522.11332	16.89196	62.59662	1634.94353	32.89888	65.03944	1732.04425	304.59834	624.85953	1660.63363	279.01113	319.30171	1695.47531	-77.68469	617.59333	1641.33426	-71.39890	300.64958	
302	3.010	1664.14876	77.65446	1326.67974	1620.46624	104.96061	1116.34769	1790.06137	95.37694	1270.72230	1724.58427	207.16813	915.57583	1749.45771	19.23915	920.49663	1591.02602	136.08229	956.28582	1598.37434	50.02785	956.48753	1854.99048	185.22233	533.87887	1787.89131	237.34195	471.95340	1645.82187	195.72965	109.40697	1670.19555	117.71797	118.90024	1590.25743	154.42617	104.79907	1706.15575	178.42506	97.79970	1725.34740	79.33763	512.87170	1677.12600	0.08034	448.69079	1584.61859	-1.43392	76.28471	1578.13625	81.28340	75.15905	1522.28196	17.72762	64.09454	1635.31678	33.03723	65.63747	1747.09983	305.78977	626.50595	1687.72451	280.93188	316.84747	1700.58499	-77.00293	618.06912	1642.74840	-71.04190	301.19914	
303	3.020	1675.52231	78.82919	1327.09945	1631.69495	106.29351	1116.69644	1801.36008	96.70614	1270.90846	1736.56946	208.24248	916.02939	1759.67276	20.04369	920.75797	1602.33479	138.30688	956.57068	1608.96585	52.30256	956.92231	1870.25017	184.48163	537.69622	1805.69160	237.61817	474.16921	1684.88920	199.57726	104.05024	1707.35011	121.17647	113.97291	1629.21472	159.22249	95.93157	1745.34278	181.38654	95.62172	1729.71648	79.48591	512.25503	1680.23124	0.35431	449.12222	1584.73874	-0.78389	77.30197	1578.63951	81.97129	76.08484	1522.42548	18.74599	65.62700	1635.70683	33.25815	66.24849	1761.78097	306.75887	627.61945	1715.14196	283.23864	314.28068	1705.98827	-76.21668	618.37699	1644.39538	-70.53315	301.68507	
